<?xml version="1.0" encoding="UTF-8" standalone="no"?>
<!-- Created with Inkscape (http://www.inkscape.org/) -->

<svg
   xmlns:dc="http://purl.org/dc/elements/1.1/"
   xmlns:cc="http://creativecommons.org/ns#"
   xmlns:rdf="http://www.w3.org/1999/02/22-rdf-syntax-ns#"
   xmlns:svg="http://www.w3.org/2000/svg"
   xmlns="http://www.w3.org/2000/svg"
   xmlns:sodipodi="http://sodipodi.sourceforge.net/DTD/sodipodi-0.dtd"
   xmlns:inkscape="http://www.inkscape.org/namespaces/inkscape"
   width="32"
   height="32"
   id="svg2"
   version="1.1"
   inkscape:version="0.48.4 r9939"
   sodipodi:docname="bar_newRepo.svg">
  <defs
     id="defs4" />
  <sodipodi:namedview
     id="base"
     pagecolor="#333333"
     bordercolor="#666666"
     borderopacity="1.0"
     inkscape:pageopacity="1"
     inkscape:pageshadow="2"
     inkscape:zoom="11.313708"
     inkscape:cx="16.127849"
     inkscape:cy="19.473262"
     inkscape:document-units="px"
     inkscape:current-layer="layer3"
     showgrid="false"
     inkscape:window-width="1320"
     inkscape:window-height="747"
     inkscape:window-x="46"
     inkscape:window-y="21"
     inkscape:window-maximized="1" />
  <metadata
     id="metadata7">
    <rdf:RDF>
      <cc:Work
         rdf:about="">
        <dc:format>image/svg+xml</dc:format>
        <dc:type
           rdf:resource="http://purl.org/dc/dcmitype/StillImage" />
        <dc:title />
      </cc:Work>
    </rdf:RDF>
  </metadata>
  <g
     inkscape:label="Repo"
     inkscape:groupmode="layer"
     id="layer1"
     transform="translate(0,-1020.3622)"
     style="display:inline">
    <path
       style="fill:#ffffff;fill-opacity:1;stroke:none;display:inline"
       d="M 16 0.46875 C 7.772452 0.46875 1.09375 2.54725 1.09375 5.09375 C 1.09375 7.64035 7.772452 9.6875 16 9.6875 C 24.227547 9.6875 30.90625 7.64035 30.90625 5.09375 C 30.90625 2.54725 24.227547 0.46875 16 0.46875 z M 15.96875 1.6875 C 16.299129 1.6875 16.623044 1.7315 16.875 1.8125 L 25.65625 4.65625 C 26.16038 4.81945 26.16038 5.0869 25.65625 5.25 L 16.9375 8.0625 C 16.432933 8.2257 15.628911 8.2257 15.125 8.0625 L 6.34375 5.21875 C 5.8396168 5.05565 5.8396168 4.7884 6.34375 4.625 L 12.375 2.6875 L 14.625 3.4375 C 14.392022 3.6182 14.514355 3.82175 14.96875 3.96875 C 15.117521 4.01675 15.254261 4.0385 15.4375 4.0625 L 15.4375 5.84375 C 15.254261 5.86775 15.117081 5.92175 14.96875 5.96875 C 14.368853 6.16285 14.368853 6.46185 14.96875 6.65625 C 15.568209 6.85035 16.525104 6.85035 17.125 6.65625 C 17.724897 6.46195 17.724897 6.16295 17.125 5.96875 C 17.003276 5.92975 16.864903 5.86675 16.71875 5.84375 L 16.71875 4.09375 L 18.78125 4.78125 C 18.552413 4.96115 18.673877 5.1664 19.125 5.3125 C 19.725551 5.5068 20.68092 5.5068 21.28125 5.3125 C 21.881148 5.1183 21.881148 4.8193 21.28125 4.625 C 20.851946 4.486 20.256474 4.4401 19.71875 4.5 L 17.5 3.78125 C 17.685641 3.60725 17.55452 3.3891 17.125 3.25 C 16.698091 3.1118 16.067011 3.09745 15.53125 3.15625 L 13.25 2.40625 L 15.0625 1.8125 C 15.314674 1.7305 15.638371 1.6875 15.96875 1.6875 z M 1.09375 6.5625 L 1.09375 12.1875 C 1.09375 14.7342 7.7724516 16.8125 16 16.8125 C 17.467736 16.8125 18.878667 16.7162 20.21875 16.59375 C 21.493989 15.900998 22.946699 15.5 24.5 15.5 C 25.003298 15.5 25.487956 15.545581 25.96875 15.625 C 29.005837 14.780703 30.9375 13.549763 30.9375 12.1875 L 30.9375 6.5625 C 30.9375 9.1091 24.227547 11.15625 16 11.15625 C 7.7724519 11.15625 1.09375 9.1091 1.09375 6.5625 z M 1.09375 13.5625 L 1.09375 19.21875 C 1.09375 21.715758 7.5253809 23.765324 15.53125 23.84375 C 15.694298 21.625165 16.643811 19.606189 18.125 18.125 C 17.431285 18.155648 16.720937 18.1875 16 18.1875 C 7.7724519 18.1875 1.09375 16.1091 1.09375 13.5625 z M 30.9375 13.5625 C 30.9375 14.571216 29.870871 15.522025 28.09375 16.28125 C 29.156391 16.746593 30.136509 17.370777 30.9375 18.1875 L 30.9375 13.5625 z M 1.09375 20.59375 L 1.09375 26.21875 C 1.09375 28.76545 7.7724516 30.84375 16 30.84375 C 16.68916 30.84375 17.366826 30.809298 18.03125 30.78125 C 16.609383 29.317285 15.697511 27.346877 15.53125 25.1875 C 7.5253812 25.109071 1.09375 23.09066 1.09375 20.59375 z "
       transform="translate(0,1020.3622)"
       id="path3052-71" />
  </g>
  <g
     inkscape:groupmode="layer"
     id="layer3"
     inkscape:label="Plus">
    <path
       id="rect3918-4"
       style="fill:#ffffff;fill-opacity:1;stroke:none;display:inline"
       d="m 25.86,18.5 0,12 -2.72,0 0,-12 z m -7.36,4.639877 12,0 0,2.72 -12,0 z"
       inkscape:connector-curvature="0" />
  </g>
</svg>
