<?xml version="1.0" encoding="UTF-8" standalone="no"?>
<!-- Created with Inkscape (http://www.inkscape.org/) -->

<svg
   xmlns:dc="http://purl.org/dc/elements/1.1/"
   xmlns:cc="http://creativecommons.org/ns#"
   xmlns:rdf="http://www.w3.org/1999/02/22-rdf-syntax-ns#"
   xmlns:svg="http://www.w3.org/2000/svg"
   xmlns="http://www.w3.org/2000/svg"
   xmlns:sodipodi="http://sodipodi.sourceforge.net/DTD/sodipodi-0.dtd"
   xmlns:inkscape="http://www.inkscape.org/namespaces/inkscape"
   width="32"
   height="32"
   id="svg2"
   version="1.1"
   inkscape:version="0.48.4 r9939"
   sodipodi:docname="bar_newRepo.svg">
  <defs
     id="defs4" />
  <sodipodi:namedview
     id="base"
     pagecolor="#333333"
     bordercolor="#666666"
     borderopacity="1.0"
     inkscape:pageopacity="1"
     inkscape:pageshadow="2"
     inkscape:zoom="11.313708"
     inkscape:cx="26.646063"
     inkscape:cy="19.473262"
     inkscape:document-units="px"
     inkscape:current-layer="layer1"
     showgrid="false"
     inkscape:window-width="1320"
     inkscape:window-height="747"
     inkscape:window-x="46"
     inkscape:window-y="21"
     inkscape:window-maximized="1" />
  <metadata
     id="metadata7">
    <rdf:RDF>
      <cc:Work
         rdf:about="">
        <dc:format>image/svg+xml</dc:format>
        <dc:type
           rdf:resource="http://purl.org/dc/dcmitype/StillImage" />
        <dc:title />
      </cc:Work>
    </rdf:RDF>
  </metadata>
  <g
     inkscape:label="Repo"
     inkscape:groupmode="layer"
     id="layer1"
     transform="translate(0,-1020.3622)"
     style="display:inline">
    <path
       style="fill:#ffffff;fill-opacity:1;stroke:none;display:inline"
       d="m 16.063476,1020.4872 c -8.227548,0 -14.907226,2.0653 -14.907226,4.6118 0,2.5466 6.679678,4.6118 14.907226,4.6118 8.227547,0 14.907225,-2.0652 14.907225,-4.6118 0,-2.5465 -6.679678,-4.6118 -14.907225,-4.6118 z m -0.03248,1.2341 c 0.330379,0 0.657417,0.016 0.909373,0.097 l 8.768957,2.858 c 0.50413,0.1632 0.50413,0.4214 0,0.5846 l -8.704001,2.8256 c -0.504567,0.1631 -1.314836,0.1631 -1.818747,0 l -8.7689562,-2.8581 c -0.5041332,-0.1631 -0.5041332,-0.4213 0,-0.5846 l 6.0083592,-1.9486 2.273433,0.747 c -0.232978,0.1806 -0.129619,0.4051 0.324776,0.5521 0.148771,0.048 0.303925,0.073 0.487164,0.097 l 0,1.7863 c -0.183239,0.024 -0.338833,0.05 -0.487164,0.097 -0.599897,0.1941 -0.599897,0.5201 0,0.7145 0.599459,0.1941 1.576104,0.1941 2.176,0 0.599897,-0.1943 0.599897,-0.5203 0,-0.7145 -0.121724,-0.039 -0.276056,-0.074 -0.422209,-0.097 l 0,-1.7538 2.078568,0.682 c -0.228837,0.1799 -0.126347,0.3735 0.324776,0.5197 0.600551,0.1942 1.57567,0.1942 2.176,0 0.599898,-0.1943 0.599898,-0.4879 0,-0.6821 -0.429304,-0.1391 -1.053679,-0.1899 -1.591403,-0.1299 l -2.208478,-0.7145 c 0.185641,-0.174 0.07227,-0.3805 -0.357254,-0.5196 -0.426909,-0.1383 -1.055642,-0.1561 -1.591403,-0.097 l -2.305911,-0.7469 1.818747,-0.6171 c 0.252174,-0.082 0.578994,-0.097 0.909373,-0.097 z m -14.874748,4.8392 0,5.6511 c 0,2.5467 6.6796776,4.6118 14.907226,4.6118 8.227547,0 14.907225,-2.0651 14.907225,-4.6118 l 0,-5.6511 c 0,2.5466 -6.679678,4.6118 -14.907225,4.6118 -8.2275481,0 -14.907226,-2.0652 -14.907226,-4.6118 z m 0,7.0152 0,5.6511 c 0,2.5467 6.6796776,4.6118 14.907226,4.6118 0.681906,0 1.32354,-0.038 1.981134,-0.065 0.89332,-3.2649 3.889096,-5.6512 7.437374,-5.6512 1.998023,0 3.795223,0.7659 5.163941,2.0137 0.198445,-0.3002 0.324776,-0.5911 0.324776,-0.9094 l 0,-5.6511 c 0,2.5468 -6.679678,4.6118 -14.907225,4.6118 -8.2275484,0 -14.907226,-2.065 -14.907226,-4.6118 z m 0,7.0151 0,5.6511 c 0,2.5468 6.6796776,4.6119 14.907226,4.6119 1.207387,0 2.350969,-0.046 3.475105,-0.1299 -1.098712,-1.3314 -1.753792,-3.0432 -1.753792,-4.9042 0,-0.2326 0.01227,-0.4546 0.03248,-0.682 -0.584942,0.022 -1.150053,0.065 -1.753791,0.065 -8.2275484,0 -14.907226,-2.0651 -14.907226,-4.6119 z"
       id="path2985-6-4"
       inkscape:connector-curvature="0" />
  </g>
  <g
     inkscape:groupmode="layer"
     id="layer3"
     inkscape:label="Plus">
    <path
       id="rect3918-4"
       style="fill:#ffffff;fill-opacity:1;stroke:none;display:inline"
       d="m 26.621559,20.391032 0,10.133017 -2.296817,0 0,-10.133017 z m -6.214917,3.917996 10.133017,0 0,2.296817 -10.133017,0 z"
       inkscape:connector-curvature="0" />
  </g>
</svg>
