<?xml version="1.0" encoding="UTF-8" standalone="no"?>
<!-- Created with Inkscape (http://www.inkscape.org/) -->

<svg
   xmlns:dc="http://purl.org/dc/elements/1.1/"
   xmlns:cc="http://creativecommons.org/ns#"
   xmlns:rdf="http://www.w3.org/1999/02/22-rdf-syntax-ns#"
   xmlns:svg="http://www.w3.org/2000/svg"
   xmlns="http://www.w3.org/2000/svg"
   xmlns:sodipodi="http://sodipodi.sourceforge.net/DTD/sodipodi-0.dtd"
   xmlns:inkscape="http://www.inkscape.org/namespaces/inkscape"
   width="32"
   height="32"
   id="svg2"
   version="1.1"
   inkscape:version="0.48.4 r9939"
   sodipodi:docname="bar_repoSettings.svg">
  <defs
     id="defs4" />
  <sodipodi:namedview
     id="base"
     pagecolor="#333333"
     bordercolor="#666666"
     borderopacity="1.0"
     inkscape:pageopacity="1"
     inkscape:pageshadow="2"
     inkscape:zoom="11.313708"
     inkscape:cx="12.459733"
     inkscape:cy="26.54433"
     inkscape:document-units="px"
     inkscape:current-layer="layer3"
     showgrid="false"
     inkscape:window-width="1320"
     inkscape:window-height="747"
     inkscape:window-x="46"
     inkscape:window-y="21"
     inkscape:window-maximized="1" />
  <metadata
     id="metadata7">
    <rdf:RDF>
      <cc:Work
         rdf:about="">
        <dc:format>image/svg+xml</dc:format>
        <dc:type
           rdf:resource="http://purl.org/dc/dcmitype/StillImage" />
        <dc:title></dc:title>
      </cc:Work>
    </rdf:RDF>
  </metadata>
  <g
     inkscape:label="Repo"
     inkscape:groupmode="layer"
     id="layer1"
     transform="translate(0,-1020.3622)"
     style="display:inline">
    <path
       style="fill:#ffffff;fill-opacity:1;stroke:none;display:inline"
       d="M 16.0625 0.125 C 7.834952 0.125 1.15625 2.2035 1.15625 4.75 C 1.15625 7.2966 7.834952 9.34375 16.0625 9.34375 C 24.290047 9.34375 30.96875 7.2966 30.96875 4.75 C 30.96875 2.2035 24.290047 0.125 16.0625 0.125 z M 16.03125 1.34375 C 16.361629 1.34375 16.685544 1.38775 16.9375 1.46875 L 25.71875 4.3125 C 26.22288 4.4757 26.22288 4.74305 25.71875 4.90625 L 17 7.71875 C 16.495433 7.88185 15.691411 7.88185 15.1875 7.71875 L 6.40625 4.875 C 5.9021168 4.7119 5.9021168 4.44455 6.40625 4.28125 L 12.4375 2.34375 L 14.6875 3.09375 C 14.454522 3.27435 14.576855 3.478 15.03125 3.625 C 15.180021 3.673 15.316761 3.69475 15.5 3.71875 L 15.5 5.5 C 15.316761 5.524 15.179581 5.578 15.03125 5.625 C 14.431353 5.8191 14.431353 6.1181 15.03125 6.3125 C 15.630709 6.5066 16.587604 6.5066 17.1875 6.3125 C 17.787397 6.1182 17.787397 5.8192 17.1875 5.625 C 17.065776 5.586 16.927403 5.523 16.78125 5.5 L 16.78125 3.75 L 18.84375 4.4375 C 18.614913 4.6174 18.736377 4.82255 19.1875 4.96875 C 19.788051 5.16295 20.74342 5.16295 21.34375 4.96875 C 21.943648 4.77445 21.943648 4.47545 21.34375 4.28125 C 20.914446 4.14215 20.318974 4.09625 19.78125 4.15625 L 17.5625 3.4375 C 17.748141 3.2635 17.617024 3.04535 17.1875 2.90625 C 16.760591 2.76795 16.129511 2.7534 15.59375 2.8125 L 13.3125 2.0625 L 15.125 1.46875 C 15.377174 1.38675 15.700871 1.34375 16.03125 1.34375 z M 1.15625 6.1875 L 1.15625 11.84375 C 1.15625 14.39045 7.8349516 16.46875 16.0625 16.46875 C 17.74263 16.46875 19.33648 16.347125 20.84375 16.1875 C 21.944681 15.707392 23.190963 15.46875 24.46875 15.46875 C 24.715212 15.46875 24.946042 15.480563 25.1875 15.5 C 28.69758 14.652455 30.96875 13.325164 30.96875 11.84375 L 30.96875 6.1875 C 30.96875 8.7341 24.290047 10.8125 16.0625 10.8125 C 7.8349519 10.8125 1.15625 8.7341 1.15625 6.1875 z M 1.15625 13.21875 L 1.15625 18.875 C 1.15625 21.361966 7.5391402 23.344555 15.5 23.4375 C 15.752818 21.178622 16.860383 19.186793 18.46875 17.75 C 17.680284 17.789584 16.887261 17.8125 16.0625 17.8125 C 7.8349519 17.8125 1.15625 15.76535 1.15625 13.21875 z M 30.96875 13.21875 C 30.96875 14.296789 29.75454 15.280879 27.75 16.0625 C 28.982579 16.54655 30.071175 17.307445 30.96875 18.25 L 30.96875 13.21875 z M 1.15625 20.21875 L 1.15625 25.875 C 1.15625 28.4217 7.8349516 30.5 16.0625 30.5 C 16.641104 30.5 17.1885 30.457497 17.75 30.4375 C 16.400961 28.927366 15.551846 26.976444 15.46875 24.8125 C 7.5227383 24.713104 1.15625 22.702306 1.15625 20.21875 z "
       transform="translate(0,1020.3622)"
       id="path3056" />
  </g>
  <g
     inkscape:groupmode="layer"
     id="layer3"
     inkscape:label="Gear">
    <path
       style="display:inline;fill:#ffffff;fill-opacity:1"
       id="path3183"
       d="m 23.51362,16.908801 -0.940839,2.2392 c -0.188169,0.057 -0.35752,0.1506 -0.526871,0.2447 l -2.2392,-0.9409 -1.354809,1.3548 0.94084,2.2393 c -0.09408,0.1881 -0.169351,0.3386 -0.244618,0.5268 l -2.2392,0.9409 V 25.3952 l 2.2392,0.9409 c 0.07527,0.1882 0.150534,0.3387 0.244618,0.5268 l -0.94084,2.2393 1.354809,1.3548 2.2392,-0.9409 c 0.169351,0.076 0.338702,0.1693 0.526871,0.2447 L 23.51362,32 h 1.881683 l 0.940839,-2.2392 c 0.169351,-0.076 0.35752,-0.1506 0.526871,-0.2447 l 2.2392,0.9409 1.354809,-1.3548 -0.94084,-2.2393 c 0.07527,-0.1693 0.169351,-0.3575 0.244618,-0.5268 L 32,25.3952 v -1.881599 l -2.2392,-0.9409 c -0.05645,-0.1693 -0.150534,-0.3575 -0.244618,-0.5268 l 0.94084,-2.2393 -1.354809,-1.3548 -2.2392,0.9409 c -0.169351,-0.076 -0.35752,-0.1693 -0.526871,-0.2447 l -0.940839,-2.2392 H 23.51362 z m 0.940841,4.7043 c 1.561796,0 2.822522,1.2607 2.822522,2.8225 0,1.561799 -1.260726,2.822499 -2.822522,2.822499 -1.561795,0 -2.822521,-1.2607 -2.822521,-2.822499 0,-1.5618 1.260726,-2.8225 2.822521,-2.8225 z"
       inkscape:connector-curvature="0" />
  </g>
</svg>
