<?xml version="1.0" encoding="UTF-8" standalone="no"?>
<!-- Created with Inkscape (http://www.inkscape.org/) -->

<svg
   xmlns:dc="http://purl.org/dc/elements/1.1/"
   xmlns:cc="http://creativecommons.org/ns#"
   xmlns:rdf="http://www.w3.org/1999/02/22-rdf-syntax-ns#"
   xmlns:svg="http://www.w3.org/2000/svg"
   xmlns="http://www.w3.org/2000/svg"
   xmlns:sodipodi="http://sodipodi.sourceforge.net/DTD/sodipodi-0.dtd"
   xmlns:inkscape="http://www.inkscape.org/namespaces/inkscape"
   width="32"
   height="32"
   id="svg2"
   version="1.1"
   inkscape:version="0.48.4 r9939"
   sodipodi:docname="bar_terminal.svg">
  <defs
     id="defs4" />
  <sodipodi:namedview
     id="base"
     pagecolor="#333333"
     bordercolor="#666666"
     borderopacity="1.0"
     inkscape:pageopacity="1"
     inkscape:pageshadow="2"
     inkscape:zoom="1"
     inkscape:cx="17.678022"
     inkscape:cy="2.0944014"
     inkscape:document-units="px"
     inkscape:current-layer="layer1"
     showgrid="false"
     inkscape:window-width="1320"
     inkscape:window-height="747"
     inkscape:window-x="46"
     inkscape:window-y="21"
     inkscape:window-maximized="1" />
  <metadata
     id="metadata7">
    <rdf:RDF>
      <cc:Work
         rdf:about="">
        <dc:format>image/svg+xml</dc:format>
        <dc:type
           rdf:resource="http://purl.org/dc/dcmitype/StillImage" />
        <dc:title></dc:title>
      </cc:Work>
    </rdf:RDF>
  </metadata>
  <g
     inkscape:label="Layer 1"
     inkscape:groupmode="layer"
     id="layer1"
     transform="translate(0,-1020.3622)">
    <path
       style="fill:#ffffff;fill-opacity:1;stroke:none"
       d="M 4.625,2 C 2.0598468,2 0,4.41365 0,7.40625 l 0,17.1875 C 0,27.58645 2.0598468,30 4.625,30 l 22.75,0 C 29.940153,30 32,27.58645 32,24.59375 L 32,7.40625 C 32,4.41365 29.940153,2 27.375,2 z m 0.00628,7.0342202 8.463443,6.3250518 0,2.211198 -8.463443,6.325052 0,-4.473818 4.172674,-2.931121 -4.172674,-2.982545 z m 8.698479,13.2438968 9.091885,0 0,3.815765 -9.091885,0 z"
       transform="translate(0,1020.3622)"
       id="rect2985"
       inkscape:connector-curvature="0"
       sodipodi:nodetypes="sssssssssccccccccccccc" />
    <g
       transform="matrix(0.80132906,0,0,1.2479268,-1.625,1.375)"
       style="font-size:13.48526478px;font-style:normal;font-weight:normal;line-height:125%;letter-spacing:0px;word-spacing:0px;fill:#000000;fill-opacity:1;stroke:none;font-family:Sans"
       id="text3755" />
  </g>
</svg>
