<?xml version="1.0" encoding="UTF-8" standalone="no"?>
<!-- Created with Inkscape (http://www.inkscape.org/) -->

<svg
   xmlns:dc="http://purl.org/dc/elements/1.1/"
   xmlns:cc="http://creativecommons.org/ns#"
   xmlns:rdf="http://www.w3.org/1999/02/22-rdf-syntax-ns#"
   xmlns:svg="http://www.w3.org/2000/svg"
   xmlns="http://www.w3.org/2000/svg"
   xmlns:xlink="http://www.w3.org/1999/xlink"
   xmlns:sodipodi="http://sodipodi.sourceforge.net/DTD/sodipodi-0.dtd"
   xmlns:inkscape="http://www.inkscape.org/namespaces/inkscape"
   width="32"
   height="32"
   id="svg2"
   version="1.1"
   inkscape:version="0.48.4 r9939"
   sodipodi:docname="tabIcon_repo_clone.svg">
  <defs
     id="defs4">
    <linearGradient
       id="linearGradient4014">
      <stop
         id="stop4016"
         offset="0"
         style="stop-color:#fad4c7;stop-opacity:1;" />
      <stop
         style="stop-color:#fba688;stop-opacity:1;"
         offset="1"
         id="stop4018" />
    </linearGradient>
    <linearGradient
       id="linearGradient3975">
      <stop
         style="stop-color:#fad4c7;stop-opacity:1;"
         offset="0"
         id="stop3977" />
      <stop
         id="stop4012"
         offset="0.5"
         style="stop-color:#fa906b;stop-opacity:1;" />
      <stop
         style="stop-color:#fb4d10;stop-opacity:1;"
         offset="1"
         id="stop3979" />
    </linearGradient>
    <linearGradient
       inkscape:collect="always"
       xlink:href="#linearGradient3975"
       id="linearGradient3981"
       x1="9.8415127"
       y1="27.731501"
       x2="31.524235"
       y2="27.731501"
       gradientUnits="userSpaceOnUse" />
    <linearGradient
       inkscape:collect="always"
       xlink:href="#linearGradient3975"
       id="linearGradient3983"
       x1="9.8415127"
       y1="22.629499"
       x2="31.524235"
       y2="22.629499"
       gradientUnits="userSpaceOnUse" />
    <linearGradient
       inkscape:collect="always"
       xlink:href="#linearGradient3975"
       id="linearGradient3985"
       x1="9.8415127"
       y1="17.5275"
       x2="31.524235"
       y2="17.5275"
       gradientUnits="userSpaceOnUse" />
    <linearGradient
       inkscape:collect="always"
       xlink:href="#linearGradient4014"
       id="linearGradient4004"
       x1="1.09375"
       y1="1039.1122"
       x2="8.71875"
       y2="1039.1122"
       gradientUnits="userSpaceOnUse" />
    <linearGradient
       inkscape:collect="always"
       xlink:href="#linearGradient4014"
       id="linearGradient4006"
       x1="1.09375"
       y1="1034.0029"
       x2="8.71875"
       y2="1034.0029"
       gradientUnits="userSpaceOnUse" />
    <linearGradient
       inkscape:collect="always"
       xlink:href="#linearGradient3975"
       id="linearGradient4008"
       x1="1.09375"
       y1="1028.9091"
       x2="22.78125"
       y2="1028.9091"
       gradientUnits="userSpaceOnUse" />
  </defs>
  <sodipodi:namedview
     id="base"
     pagecolor="#eeedeb"
     bordercolor="#666666"
     borderopacity="1.0"
     inkscape:pageopacity="1"
     inkscape:pageshadow="2"
     inkscape:zoom="11.313708"
     inkscape:cx="-14.16427"
     inkscape:cy="19.473262"
     inkscape:document-units="px"
     inkscape:current-layer="layer1"
     showgrid="false"
     inkscape:window-width="1320"
     inkscape:window-height="747"
     inkscape:window-x="46"
     inkscape:window-y="21"
     inkscape:window-maximized="1" />
  <metadata
     id="metadata7">
    <rdf:RDF>
      <cc:Work
         rdf:about="">
        <dc:format>image/svg+xml</dc:format>
        <dc:type
           rdf:resource="http://purl.org/dc/dcmitype/StillImage" />
        <dc:title></dc:title>
      </cc:Work>
    </rdf:RDF>
  </metadata>
  <g
     inkscape:label="Repo"
     inkscape:groupmode="layer"
     id="layer1"
     transform="translate(0,-1020.3622)"
     style="display:inline">
    <path
       id="path3052-71"
       style="fill:url(#linearGradient4004);fill-opacity:1;stroke:none;display:inline;opacity:0.45"
       d="m 1.09375,1035.456 0,4.125 c 0,1.503 3.2209792,2.7612 7.625,3.1875 l 0,-4.125 c -4.4040207,-0.4263 -7.625,-1.6846 -7.625,-3.1875 z m 0,-5.0938 0,4.0938 c 0,1.5028 3.2218143,2.7611 7.625,3.1875 l 0,-4.0938 c -4.4040207,-0.4262 -7.625,-1.6844 -7.625,-3.1875 z m 0,-5.0937 0,4.0937 c 0,1.5031 3.2209792,2.7613 7.625,3.1875 l 0,-0.25 c 0,-2.0448 5.362582,-3.7187 11.96875,-3.7187 0.718691,0 1.4098,0.056 2.09375,0.094 l 0,-3.4062 c 0,1.8521 -4.860222,3.3437 -10.84375,3.3437 -5.9835297,0 -10.84375,-1.4916 -10.84375,-3.3437 z m 10.84375,-4.4375 c -5.983529,0 -10.84375,1.523 -10.84375,3.375 0,1.852 4.860221,3.3437 10.84375,3.3437 5.983529,0 10.84375,-1.4917 10.84375,-3.3437 0,-1.852 -4.860221,-3.375 -10.84375,-3.375 z m -0.375,0.9062 c 0.111811,-0.015 0.254865,0 0.375,0 0.24027,0 0.473014,0.035 0.65625,0.094 l 6.375,2.0625 c 0.366631,0.1187 0.366631,0.3188 0,0.4375 l -6.34375,2.0312 c -0.366949,0.1186 -0.946028,0.1186 -1.3125,0 l -6.375,-2.0625 c -0.3666336,-0.1187 -0.3666336,-0.3186 0,-0.4375 l 4.375,-1.4062 1.625,0.5312 c -0.169434,0.1314 -0.08046,0.2994 0.25,0.4063 0.108195,0.035 0.210489,0.045 0.34375,0.062 l 0,1.2812 c -0.133261,0.018 -0.235875,0.06 -0.34375,0.094 -0.436278,0.1412 -0.436278,0.3586 0,0.5 0.43596,0.1412 1.157472,0.1412 1.59375,0 0.436278,-0.1413 0.436278,-0.3587 0,-0.5 -0.08853,-0.028 -0.206209,-0.077 -0.3125,-0.094 l 0,-1.25 1.5,0.5 c -0.166423,0.1308 -0.07808,0.2688 0.25,0.375 0.436754,0.1413 1.125907,0.1413 1.5625,0 0.436279,-0.1412 0.436279,-0.3587 0,-0.5 -0.312213,-0.1011 -0.733938,-0.1369 -1.125,-0.094 l -1.625,-0.5313 c 0.135008,-0.1266 0.06237,-0.2739 -0.25,-0.375 -0.310472,-0.1005 -0.797865,-0.1062 -1.1875,-0.062 l -1.65625,-0.5625 1.34375,-0.4062 c 0.0917,-0.03 0.169439,-0.078 0.28125,-0.094 z" />
  </g>
  <g
     inkscape:groupmode="layer"
     id="layer2"
     inkscape:label="Layer"
     style="display:inline">
    <path
       style="fill:url(#linearGradient3981);fill-opacity:1;stroke:none;display:inline;opacity:1"
       d="m 9.8415128,23.9996 0,4.1098 c 0,1.8521 4.8578312,3.354 10.8413612,3.354 5.983528,0 10.841361,-1.5019 10.841361,-3.354 l 0,-4.1098 c 0,1.852 -4.857833,3.354 -10.841361,3.354 -5.983529,0 -10.8413612,-1.502 -10.8413612,-3.354 z"
       id="path3135" />
    <path
       style="fill:url(#linearGradient3983);fill-opacity:1;stroke:none;display:inline;opacity:1"
       d="m 9.8415128,18.8976 0,4.1098 c 0,1.8521 4.8578312,3.354 10.8413612,3.354 5.983528,0 10.841361,-1.5019 10.841361,-3.354 l 0,-4.1098 c 0,1.8521 -4.857833,3.354 -10.841361,3.354 -5.983529,0 -10.8413612,-1.5019 -10.8413612,-3.354 z"
       id="path3133" />
    <path
       style="fill:url(#linearGradient3985);fill-opacity:1;stroke:none;display:inline;opacity:1"
       d="m 9.8415128,13.7956 0,4.1098 c 0,1.8521 4.8578312,3.354 10.8413612,3.354 5.983528,0 10.841361,-1.5019 10.841361,-3.354 l 0,-4.1098 c 0,1.8521 -4.857833,3.354 -10.841361,3.354 -5.983529,0 -10.8413612,-1.5019 -10.8413612,-3.354 z"
       id="path3131" />
    <path
       style="fill:#fc885f;fill-opacity:1;stroke:none;display:inline;opacity:1"
       d="M 20.6875 9.375 C 14.703971 9.375 9.84375 10.898 9.84375 12.75 C 9.84375 14.602 14.703971 16.09375 20.6875 16.09375 C 26.671029 16.09375 31.53125 14.602 31.53125 12.75 C 31.53125 10.898 26.671029 9.375 20.6875 9.375 z M 20.65625 10.25 C 20.89652 10.25 21.129264 10.28475 21.3125 10.34375 L 27.71875 12.4375 C 28.085381 12.5562 28.085381 12.72505 27.71875 12.84375 L 21.375 14.90625 C 21.008051 15.02485 20.397722 15.02485 20.03125 14.90625 L 13.65625 12.84375 C 13.289616 12.72505 13.289616 12.52515 13.65625 12.40625 L 18.03125 11 L 19.6875 11.53125 C 19.518066 11.66265 19.607036 11.8306 19.9375 11.9375 C 20.045695 11.9725 20.147989 11.983 20.28125 12 L 20.28125 13.28125 C 20.147989 13.29925 20.045375 13.341 19.9375 13.375 C 19.501222 13.5162 19.501222 13.7336 19.9375 13.875 C 20.37346 14.0162 21.063722 14.0162 21.5 13.875 C 21.936278 13.7337 21.936278 13.5163 21.5 13.375 C 21.41147 13.347 21.325041 13.29825 21.21875 13.28125 L 21.21875 12 L 22.71875 12.5 C 22.552327 12.6308 22.640666 12.80005 22.96875 12.90625 C 23.405504 13.04755 24.094657 13.04755 24.53125 12.90625 C 24.967529 12.76505 24.967529 12.54755 24.53125 12.40625 C 24.219037 12.30515 23.766062 12.2691 23.375 12.3125 L 21.78125 11.78125 C 21.916258 11.65465 21.812371 11.50735 21.5 11.40625 C 21.189528 11.30575 20.733385 11.30055 20.34375 11.34375 L 18.6875 10.78125 L 20 10.34375 C 20.183395 10.28375 20.41598 10.25 20.65625 10.25 z "
       id="path3129" />
  </g>
</svg>
